<svg xmlns="http://www.w3.org/2000/svg" viewBox="0 0 288 288"><defs><style>.cls-1{fill:none;}.cls-2{fill:#000;}.cls-3{fill:#000;}</style></defs><g id="Layer_2" data-name="Layer 2"><g id="Layer_1-2" data-name="Layer 1"><rect class="cls-1" width="288" height="288"/><path class="cls-2" d="M44.33,182c0-8.08,5.65-13.31,13.88-13.31H86.69v36.25H77.37v-9.69h-15l-5.86,9.69h-11l6.69-10.77C47.34,192.25,44.33,187.9,44.33,182Zm33-5.49H60.8c-2.79,0-7.15,0-7.15,5.49s4.36,5.43,7.15,5.43H77.37Z"/><path class="cls-2" d="M99.75,176.09v7.36h29v6.73h-29v7.35h29v7.41H90.42V168.69h38.33v7.4Z"/><path class="cls-2" d="M177.74,194.37c0,6.12-3.57,10.57-11.81,10.57H132.79V168.69h31.9c8.23,0,10.77,4.19,10.77,9.53a10.63,10.63,0,0,1-2.85,7A10.24,10.24,0,0,1,177.74,194.37Zm-35.63-11.44h19.26c2.49,0,4.77,0,4.77-3.78s-2.28-3.73-4.82-3.73H142.11Zm26.31,11c0-3.83-2.28-3.83-4.77-3.83H142.11v7.66h21.54C166.14,197.74,168.42,197.74,168.42,193.91Z"/><path class="cls-2" d="M181.47,176.09v-7.4h38.32v36.25H181.47v-7.41h29v-7.35h-29v-6.73h29v-7.36Z"/><path class="cls-2" d="M261.12,197.12v7.82H223.83V168.69h9.32v28.43Z"/><path class="cls-3" d="M61.34,107.3l2.26-.4Z"/><path class="cls-3" d="M278.25,124.75v2.31l-2.72-.23c-14.63-1.21-29.32-2.13-44-2.85s-29.44-1.23-44.15-1.38c-3.68,0-7.36,0-11,0s-7.31.12-10.69.46-7,1-10.62,1.7-7.16,1.46-10.75,2.27c-14.34,3.24-28.66,7-43,10.79s-28.59,7.79-42.9,11.76l-21.5,5.91c-3.59,1-7.19,1.94-10.82,2.87-1.82.46-3.64.92-5.51,1.36-.93.21-1.87.42-2.86.62-.5.1-1,.19-1.59.28-.3,0-.61.08-1,.11a6.08,6.08,0,0,1-.89,0,5,5,0,0,1-1.07-.17,4.34,4.34,0,0,1-1.42-.65,4.63,4.63,0,0,1-2-3.41c0-.07,0-.15,0-.22a5,5,0,0,1,0-.66,4.24,4.24,0,0,1,.2-.93,3.82,3.82,0,0,1,.31-.76,5.69,5.69,0,0,1,.35-.57l.31-.39a2.68,2.68,0,0,1,.28-.29l.26-.23a6.46,6.46,0,0,1,1.21-.81,13.3,13.3,0,0,1,1.31-.56c.71-.26,1.32-.45,1.93-.63,1.2-.37,2.35-.69,3.49-1l6.81-1.91c4.51-1.28,9-2.62,13.49-4s9-2.8,13.43-4.26l3.35-1.1c1.12-.37,2.21-.74,3.39-1.11,2.33-.75,4.62-1.41,6.91-2.09,9.16-2.63,18.29-5.07,27.43-7.48l27.42-7.16,27.39-7.1,13.66-3.58,3.41-.9,1.71-.45.79-.22.74-.22c2.13-.67,4.37-1.43,6.57-2.18,8.85-3,17.69-6.25,26.43-9.58q3.27-1.24,6.53-2.52l3.25-1.3,2.79-1.14c-.88,0-1.77,0-2.66.07-1.8.06-3.6.15-5.41.27-7.25.45-14.56,1.17-21.84,2-14.58,1.64-29.15,3.68-43.69,5.83-29.07,4.35-58,9.23-86.81,14.34-14.07,2.45-15.87,2.58-11.52,1.5s14.41-3.21,24.69-5.3c-6.37,1.27-6.67.81-13.46,2.2,0-.26,3.4-1.25,10.38-2.81,6.77-1.51,16.85-3.55,30.27-5.91l-19.82,3.39c-7.08,1-.09-.54-.16-.89l9.69-1.69a34.51,34.51,0,0,0,4.37-.91l-.12-.71c-6.16,1-17.73,3-25.23,4.38l6.73-1.21a35.94,35.94,0,0,0,4.38-.92c0-.18-.1-.54-.13-.71,14.07-2.65,35.28-5.84,49.4-8.23l-.09-.53c-14.18,2-35.31,5.76-49.4,8.22,7-1.4,7-1.58,6.93-1.93,21.12-3.82,42.39-6.76,63.55-10.43q-10.62,1.57-21.22,3.24c7-1.55,19.37-3.52,32.68-5.34s27.56-3.47,38.3-4.56c5.45-.56,11-1.06,16.74-1.31l2.16-.08,1.09,0,1.59,0a62,62,0,0,1,7.32.33,16,16,0,0,1,5.51,1.49,8.27,8.27,0,0,1,1.69,1.17,6.08,6.08,0,0,1,1.24,1.63,2.26,2.26,0,0,1,.22.84,1.8,1.8,0,0,1,0,.7,5.11,5.11,0,0,1-.36,1,7.13,7.13,0,0,1-1.55,2.13,15.67,15.67,0,0,1-3.55,2.33c-1.46.77-3.07,1.51-4.7,2.23L219.66,98l-2,.82L214.85,100c-1.89.76-3.79,1.52-5.69,2.26-7.62,3-15.35,5.79-23.17,8.56-3,1.07-6.07,2.14-9.14,3.18,2.78,0,5.55,0,8.32,0,19.51.21,38.74,1,57.64,2.08,0,.36-7.21.49-.07,1.08,14.29,1.12,21.42,2,25,2.61s3.51,1,3.48,1.33a19.21,19.21,0,0,1-3.24-.09l-6.58-.47c-4.46-.32-8-.56-4.48-.14-10.7-.74-25-1.48-33.93-1.77-4.48-.14-7.6-.22-8.28-.16s1.12.18,6.48.49c3.56.33,12.49.74,21.41,1.28s17.83,1.21,21.37,1.75c7.09,1.07-7.19.54-.12,1.61C267.42,123.85,272.85,124.28,278.25,124.75Z"/></g></g></svg>